<svg id="Layer_1" data-name="Layer 1" xmlns="http://www.w3.org/2000/svg" viewBox="0 0 533.56 303.98"><path d="M636.11,741.2l26.35-36.39,31.71-43.75q16.59-22.87,33.45-46.16t31.84-43.61q10.17-13.92,18.87-26.09t15.12-21.14q6.42-9,10.3-14.18c2.58-3.48,4-5.4,4.15-5.76l-59.41,222.1H720.66l25.16-94.46Q732.17,650.5,722.4,664t-17.92,24.76q-8.18,11.24-15.93,22.07t-17.39,24.22Q661.53,748.43,649,766t-30.5,42.14Zm142.09-15L820.74,567h27.83l-17.93,66.63h67.7L916.27,567H944.1L901.55,726.22H873.72l17.4-65h-67.7l-17.4,65Z" transform="translate(-618.45 -504.12)"/><path d="M931,725.68l42.55-158.94h70.91a49.9,49.9,0,0,1,21.27,4.41,40.34,40.34,0,0,1,15.39,12.18,41.9,41.9,0,0,1,7.76,18.19,50.11,50.11,0,0,1-1.34,22.21A66.69,66.69,0,0,1,1070,654.24a80.36,80.36,0,0,1-29.84,19.26q3.21,17.4,6.55,34.52t6.29,32.65l-17.92,66.9q-4.29-22.52-7.36-38.86t-5.49-29.06q-2.41-12.74-4.28-22.91t-3.75-20.09q-1.87-9.92-3.88-20.9t-4.68-25.19H1022a40.51,40.51,0,0,0,12.58-2,43.67,43.67,0,0,0,11.24-5.5,35.42,35.42,0,0,0,8.7-8.44,32.76,32.76,0,0,0,5.21-11.12,23.82,23.82,0,0,0,.67-11.92,20.74,20.74,0,0,0-4.41-9.24,22.21,22.21,0,0,0-8.16-5.9A27,27,0,0,0,1037,594.3H993.87L958.81,725.68Z" transform="translate(-618.45 -504.12)"/><path d="M1081.63,726.22l42.55-159H1152l-42.55,159Z" transform="translate(-618.45 -504.12)"/></svg>