<svg id="Layer_1" data-name="Layer 1" xmlns="http://www.w3.org/2000/svg" viewBox="0 0 1195.13 316.45"><path d="M229,524.26q-12.37-2.07-19-8.51a29.14,29.14,0,0,1-8.38-15.22,40.18,40.18,0,0,1,.65-18.31,52.69,52.69,0,0,1,8.38-17.8q9-12.63,21.28-17.54a65.93,65.93,0,0,1,24.63-4.9h28.37q.51,1.83,1.8,8.86t3.35,17.71H249.59a22.74,22.74,0,0,0-12.89,4A18.19,18.19,0,0,0,229,483.39q-2.33,8.19,1.42,12.66t10.7,4.48h33.53A46.46,46.46,0,0,1,293.05,504a32,32,0,0,1,13,9.8A32.7,32.7,0,0,1,312.39,529,48,48,0,0,1,311,548.76a55.79,55.79,0,0,1-9.15,19.34,62.89,62.89,0,0,1-15,14.44A70.72,70.72,0,0,1,268,591.7a67.58,67.58,0,0,1-20.5,3.22H182q7.22-7.54,12.64-13.54t12.12-13h47.71a32.38,32.38,0,0,0,9.8-1.54,33.82,33.82,0,0,0,8.9-4.23,30.85,30.85,0,0,0,7.09-6.67,24.15,24.15,0,0,0,4.39-9.1q2.56-9.74-2.84-15.77t-15.73-6q-.78,0-6.45-.13l-12.12-.26q-6.45-.12-12.12-.26Zm231.86-82.53q-5.94,6.51-10.83,11.71-4.39,4.69-8.51,9c-2.76,2.87-4.65,4.9-5.68,6.12H319q-2.07-11.46-3.61-18.62a78.86,78.86,0,0,1-1.55-8.2Zm-30.69,64.21-25,26.57H360.75q2.06,9.74,3.74,18.69t3,16.64H427a1.42,1.42,0,0,1-.26.78l-24.5,26v.26h-58.8q-1.8-8.25-2.45-11.6c-.43-2.24-.77-4-1-5.42l-.9-4.77c-.35-1.81-1-5.07-1.94-9.8s-2.28-11.56-4-20.5-4-21.24-7-36.89Z" transform="translate(-182.02 -357.39)"/><path d="M442,594.41l41-153.2h68.34a48.06,48.06,0,0,1,20.51,4.26,38.78,38.78,0,0,1,14.83,11.73,40.44,40.44,0,0,1,7.48,17.54,48.38,48.38,0,0,1-1.29,21.4,64.33,64.33,0,0,1-16.9,29.4,77.3,77.3,0,0,1-28.75,18.57q3.09,16.77,6.31,33.27t6.07,31.47l-17.28,64.48q-4.14-21.71-7.1-37.45t-5.28-28q-2.33-12.27-4.13-22.08t-3.61-19.37q-1.82-9.55-3.74-20.14T514,522h15.73a38.84,38.84,0,0,0,12.12-1.93,42.27,42.27,0,0,0,10.83-5.3,33.9,33.9,0,0,0,8.38-8.13,31.27,31.27,0,0,0,5-10.72,23.15,23.15,0,0,0,.65-11.49,20,20,0,0,0-4.26-8.91,21.29,21.29,0,0,0-7.86-5.68,26,26,0,0,0-10.45-2.07H502.6L468.81,594.41Z" transform="translate(-182.02 -357.39)"/><path d="M575.58,594.92l7.61-10.44q5.55-7.61,13-18.06t16.63-22.95Q622,531,631.42,518.07T650,492.66q9.15-12.51,16.63-23t13-17.93q5.54-7.47,7.61-10.31h29.4c0,.51.51,3.48,1.55,8.9s2.36,12.46,4,21.14,3.52,18.62,5.68,29.79,4.38,22.91,6.7,35.21,4.68,24.71,7.09,37.26,4.65,24.42,6.71,35.59l-17,64.48Q726.2,647,722.72,629t-5.93-31.73q-2.46-13.66-4.65-25T707.5,547.6q-2.44-13.29-5.8-30.82t-8.25-43.33q-11.61,15.74-19.09,26.05t-12,16.5q-4.51,6.19-6.71,9.29t-3.35,4.64c-.77,1-1.38,1.85-1.81,2.45s-1.07,1.46-1.93,2.58-2.11,2.8-3.74,5-4,5.59-7.22,10.06-7.4,10.31-12.64,17.53-11.91,16.34-20,27.34Zm270-153.45a47.93,47.93,0,0,1,20.63,4.25,38.9,38.9,0,0,1,14.7,11.74A41.58,41.58,0,0,1,888.55,475a46.84,46.84,0,0,1-1.16,21.4,63.45,63.45,0,0,1-10.19,21,76.52,76.52,0,0,1-16.63,16.64,81,81,0,0,1-20.89,11,68.79,68.79,0,0,1-22.95,4H785.26l-12.12,45.91q-1.82-9.54-3.35-17.54t-3.61-18.56q-2.07-10.58-4.39-22.19l3.87-14.18H824a38.61,38.61,0,0,0,12.12-1.94,42.62,42.62,0,0,0,10.83-5.31,36.65,36.65,0,0,0,8.51-8.17,30.26,30.26,0,0,0,5.16-10.75,26.52,26.52,0,0,0,.51-11.53,18.34,18.34,0,0,0-4.25-8.94,22.53,22.53,0,0,0-8-5.7A26,26,0,0,0,838.39,468H748.64q-1.82-9.7-3.23-16.73c-.94-4.68-1.59-8-1.93-9.83Z" transform="translate(-182.02 -357.39)"/><path d="M922.72,441.47h26.83l-17.28,64.22h65l17.28-64.22h26.82L979.21,673.33q-3.62-10.59-7.48-21.54T964,630l26.31-97.75h-65l-16.76,62.67H881.72Z" transform="translate(-182.02 -357.39)"/><path d="M1028.72,594.92l41-153.19h26.82l-41,153.19Z" transform="translate(-182.02 -357.39)"/><path d="M1083.91,594.66l63.45-237.27q.77,4.65,3,15.73t5,25.79q2.84,14.7,6.19,32t7,34.56q8,40.76,17.8,89.5l30.43-113.48h26.82L1181.4,673.33q-8.26-41-15.73-78.41-3.11-16-6.45-32.75t-6.45-32.37q-3.09-15.6-5.93-29.4t-4.64-23.6l-31.47,117.86Z" transform="translate(-182.02 -357.39)"/><path d="M1346.46,505.69l-24.76,26.56h-47.2l-9.8,36.11h78.66a.74.74,0,0,1-.26.51l-24.5,26h-87.68l23.72-89.23Zm-74.54-64.22h105.23q-5.94,6.12-10.83,11.49l-8.52,8.94q-4.12,4.35-5.93,6.13H1264.7Z" transform="translate(-182.02 -357.39)"/></svg>